<mxfile host="app.diagrams.net" modified="2023-11-09T03:39:16.144Z" agent="Mozilla/5.0 (Windows NT 10.0; Win64; x64) AppleWebKit/537.36 (KHTML, like Gecko) Chrome/119.0.0.0 Safari/537.36" etag="ilDEuvHamM6We1-1r0_t" version="22.0.8" type="device">
  <diagram name="第 1 页" id="8Zm0_TFbphuXwySTZEQn">
    <mxGraphModel dx="1434" dy="750" grid="1" gridSize="10" guides="1" tooltips="1" connect="1" arrows="1" fold="1" page="1" pageScale="1" pageWidth="827" pageHeight="1169" math="0" shadow="0">
      <root>
        <mxCell id="0" />
        <mxCell id="1" parent="0" />
        <mxCell id="RdHoehYWRiK18OFlvWDC-13" value="" style="rounded=0;whiteSpace=wrap;html=1;fillColor=none;" parent="1" vertex="1">
          <mxGeometry x="16" y="360" width="390" height="410" as="geometry" />
        </mxCell>
        <mxCell id="RdHoehYWRiK18OFlvWDC-1" value="V" style="rounded=0;whiteSpace=wrap;html=1;" parent="1" vertex="1">
          <mxGeometry x="140" y="237" width="80" height="70" as="geometry" />
        </mxCell>
        <mxCell id="RdHoehYWRiK18OFlvWDC-15" value="" style="rounded=0;whiteSpace=wrap;html=1;fillColor=none;" parent="1" vertex="1">
          <mxGeometry x="107" y="490" width="240" height="160" as="geometry" />
        </mxCell>
        <mxCell id="RdHoehYWRiK18OFlvWDC-2" value="C" style="rounded=0;whiteSpace=wrap;html=1;" parent="1" vertex="1">
          <mxGeometry x="340" y="237" width="80" height="70" as="geometry" />
        </mxCell>
        <mxCell id="RdHoehYWRiK18OFlvWDC-3" value="D" style="rounded=0;whiteSpace=wrap;html=1;" parent="1" vertex="1">
          <mxGeometry x="550" y="237" width="80" height="70" as="geometry" />
        </mxCell>
        <mxCell id="RdHoehYWRiK18OFlvWDC-4" value="" style="endArrow=classic;html=1;rounded=0;entryX=0;entryY=0.25;entryDx=0;entryDy=0;exitX=1;exitY=0.25;exitDx=0;exitDy=0;" parent="1" source="RdHoehYWRiK18OFlvWDC-1" target="RdHoehYWRiK18OFlvWDC-2" edge="1">
          <mxGeometry width="50" height="50" relative="1" as="geometry">
            <mxPoint x="240" y="257" as="sourcePoint" />
            <mxPoint x="290" y="207" as="targetPoint" />
          </mxGeometry>
        </mxCell>
        <mxCell id="RdHoehYWRiK18OFlvWDC-9" value="M" style="edgeLabel;html=1;align=center;verticalAlign=middle;resizable=0;points=[];" parent="RdHoehYWRiK18OFlvWDC-4" vertex="1" connectable="0">
          <mxGeometry x="-0.1833" y="3" relative="1" as="geometry">
            <mxPoint y="1" as="offset" />
          </mxGeometry>
        </mxCell>
        <mxCell id="RdHoehYWRiK18OFlvWDC-5" value="" style="endArrow=classic;html=1;rounded=0;entryX=0;entryY=0.25;entryDx=0;entryDy=0;exitX=1;exitY=0.25;exitDx=0;exitDy=0;" parent="1" source="RdHoehYWRiK18OFlvWDC-2" target="RdHoehYWRiK18OFlvWDC-3" edge="1">
          <mxGeometry width="50" height="50" relative="1" as="geometry">
            <mxPoint x="430" y="347" as="sourcePoint" />
            <mxPoint x="350" y="265" as="targetPoint" />
          </mxGeometry>
        </mxCell>
        <mxCell id="RdHoehYWRiK18OFlvWDC-12" value="M" style="edgeLabel;html=1;align=center;verticalAlign=middle;resizable=0;points=[];" parent="RdHoehYWRiK18OFlvWDC-5" vertex="1" connectable="0">
          <mxGeometry x="-0.0769" y="1" relative="1" as="geometry">
            <mxPoint y="1" as="offset" />
          </mxGeometry>
        </mxCell>
        <mxCell id="RdHoehYWRiK18OFlvWDC-7" value="" style="endArrow=classic;html=1;rounded=0;entryX=0.5;entryY=0;entryDx=0;entryDy=0;" parent="1" target="RdHoehYWRiK18OFlvWDC-1" edge="1">
          <mxGeometry width="50" height="50" relative="1" as="geometry">
            <mxPoint x="180" y="147" as="sourcePoint" />
            <mxPoint x="170" y="117" as="targetPoint" />
          </mxGeometry>
        </mxCell>
        <mxCell id="RdHoehYWRiK18OFlvWDC-8" value="M" style="edgeLabel;html=1;align=center;verticalAlign=middle;resizable=0;points=[];" parent="RdHoehYWRiK18OFlvWDC-7" vertex="1" connectable="0">
          <mxGeometry y="2" relative="1" as="geometry">
            <mxPoint as="offset" />
          </mxGeometry>
        </mxCell>
        <mxCell id="RdHoehYWRiK18OFlvWDC-10" value="" style="endArrow=classic;html=1;rounded=0;exitX=0.013;exitY=0.671;exitDx=0;exitDy=0;exitPerimeter=0;entryX=1.013;entryY=0.671;entryDx=0;entryDy=0;entryPerimeter=0;" parent="1" source="RdHoehYWRiK18OFlvWDC-2" target="RdHoehYWRiK18OFlvWDC-1" edge="1">
          <mxGeometry width="50" height="50" relative="1" as="geometry">
            <mxPoint x="150" y="477" as="sourcePoint" />
            <mxPoint x="200" y="427" as="targetPoint" />
          </mxGeometry>
        </mxCell>
        <mxCell id="RdHoehYWRiK18OFlvWDC-11" value="IM" style="edgeLabel;html=1;align=center;verticalAlign=middle;resizable=0;points=[];" parent="RdHoehYWRiK18OFlvWDC-10" vertex="1" connectable="0">
          <mxGeometry x="0.2007" y="-4" relative="1" as="geometry">
            <mxPoint as="offset" />
          </mxGeometry>
        </mxCell>
        <mxCell id="3vEzB23FRFbl8t1fRovv-1" value="" style="rounded=0;whiteSpace=wrap;html=1;fillColor=none;" vertex="1" parent="1">
          <mxGeometry x="37" y="420" width="240" height="160" as="geometry" />
        </mxCell>
        <mxCell id="3vEzB23FRFbl8t1fRovv-2" value="" style="endArrow=classic;html=1;rounded=0;exitX=0;exitY=0;exitDx=0;exitDy=0;entryX=0;entryY=0;entryDx=0;entryDy=0;" edge="1" parent="1" source="3vEzB23FRFbl8t1fRovv-1" target="RdHoehYWRiK18OFlvWDC-15">
          <mxGeometry width="50" height="50" relative="1" as="geometry">
            <mxPoint x="-68" y="500" as="sourcePoint" />
            <mxPoint x="-38" y="490" as="targetPoint" />
          </mxGeometry>
        </mxCell>
        <mxCell id="3vEzB23FRFbl8t1fRovv-3" value="viewbox移动" style="edgeLabel;html=1;align=center;verticalAlign=middle;resizable=0;points=[];" vertex="1" connectable="0" parent="3vEzB23FRFbl8t1fRovv-2">
          <mxGeometry x="0.125" y="2" relative="1" as="geometry">
            <mxPoint as="offset" />
          </mxGeometry>
        </mxCell>
        <mxCell id="3vEzB23FRFbl8t1fRovv-4" value="" style="rounded=0;whiteSpace=wrap;html=1;fillColor=#fff2cc;strokeColor=#d6b656;" vertex="1" parent="1">
          <mxGeometry x="112" y="585" width="230" height="60" as="geometry" />
        </mxCell>
        <mxCell id="3vEzB23FRFbl8t1fRovv-5" value="" style="rounded=0;whiteSpace=wrap;html=1;fillColor=#fff2cc;strokeColor=#d6b656;" vertex="1" parent="1">
          <mxGeometry x="284" y="499" width="55" height="81" as="geometry" />
        </mxCell>
        <mxCell id="3vEzB23FRFbl8t1fRovv-7" value="差集矩形1：nx1, oy2, nx2, ny2" style="text;html=1;strokeColor=none;fillColor=none;align=center;verticalAlign=middle;whiteSpace=wrap;rounded=0;" vertex="1" parent="1">
          <mxGeometry x="176" y="680" width="184" height="30" as="geometry" />
        </mxCell>
        <mxCell id="3vEzB23FRFbl8t1fRovv-8" value="差集矩形2：&lt;br&gt;ox2 ny1, nx2, oy2" style="text;html=1;strokeColor=none;fillColor=none;align=center;verticalAlign=middle;whiteSpace=wrap;rounded=0;" vertex="1" parent="1">
          <mxGeometry x="284" y="447" width="134" height="30" as="geometry" />
        </mxCell>
        <mxCell id="3vEzB23FRFbl8t1fRovv-18" value="" style="rounded=0;whiteSpace=wrap;html=1;fillColor=none;" vertex="1" parent="1">
          <mxGeometry x="425" y="360" width="390" height="410" as="geometry" />
        </mxCell>
        <mxCell id="3vEzB23FRFbl8t1fRovv-20" value="" style="rounded=0;whiteSpace=wrap;html=1;fillColor=none;" vertex="1" parent="1">
          <mxGeometry x="469" y="478" width="240" height="160" as="geometry" />
        </mxCell>
        <mxCell id="3vEzB23FRFbl8t1fRovv-19" value="" style="rounded=0;whiteSpace=wrap;html=1;fillColor=none;" vertex="1" parent="1">
          <mxGeometry x="535" y="553" width="240" height="160" as="geometry" />
        </mxCell>
        <mxCell id="3vEzB23FRFbl8t1fRovv-24" value="" style="rounded=0;whiteSpace=wrap;html=1;fillColor=#fff2cc;strokeColor=#d6b656;" vertex="1" parent="1">
          <mxGeometry x="475" y="551" width="55" height="81" as="geometry" />
        </mxCell>
        <mxCell id="3vEzB23FRFbl8t1fRovv-23" value="" style="rounded=0;whiteSpace=wrap;html=1;fillColor=#fff2cc;strokeColor=#d6b656;" vertex="1" parent="1">
          <mxGeometry x="474" y="486" width="230" height="60" as="geometry" />
        </mxCell>
        <mxCell id="3vEzB23FRFbl8t1fRovv-25" value="差集矩形1：nx1, ny1, nx2, oy2" style="text;html=1;strokeColor=none;fillColor=none;align=center;verticalAlign=middle;whiteSpace=wrap;rounded=0;" vertex="1" parent="1">
          <mxGeometry x="490" y="430" width="184" height="30" as="geometry" />
        </mxCell>
        <mxCell id="3vEzB23FRFbl8t1fRovv-26" value="差集矩形2：&lt;br&gt;nx1 oy1, ox1, ny2" style="text;html=1;strokeColor=none;fillColor=none;align=center;verticalAlign=middle;whiteSpace=wrap;rounded=0;" vertex="1" parent="1">
          <mxGeometry x="416" y="660" width="134" height="30" as="geometry" />
        </mxCell>
        <mxCell id="3vEzB23FRFbl8t1fRovv-27" value="" style="endArrow=classic;html=1;rounded=0;exitX=0;exitY=0;exitDx=0;exitDy=0;entryX=0;entryY=0;entryDx=0;entryDy=0;" edge="1" parent="1" source="3vEzB23FRFbl8t1fRovv-19" target="3vEzB23FRFbl8t1fRovv-20">
          <mxGeometry width="50" height="50" relative="1" as="geometry">
            <mxPoint x="659" y="359" as="sourcePoint" />
            <mxPoint x="569" y="359" as="targetPoint" />
          </mxGeometry>
        </mxCell>
        <mxCell id="3vEzB23FRFbl8t1fRovv-28" value="viewboc移动" style="edgeLabel;html=1;align=center;verticalAlign=middle;resizable=0;points=[];" vertex="1" connectable="0" parent="3vEzB23FRFbl8t1fRovv-27">
          <mxGeometry x="0.0259" y="-1" relative="1" as="geometry">
            <mxPoint x="-1" as="offset" />
          </mxGeometry>
        </mxCell>
        <mxCell id="3vEzB23FRFbl8t1fRovv-29" value="" style="rounded=0;whiteSpace=wrap;html=1;fillColor=none;" vertex="1" parent="1">
          <mxGeometry x="225" y="1560" width="240" height="160" as="geometry" />
        </mxCell>
        <mxCell id="3vEzB23FRFbl8t1fRovv-30" value="" style="rounded=0;whiteSpace=wrap;html=1;fillColor=none;" vertex="1" parent="1">
          <mxGeometry x="140" y="1635" width="240" height="160" as="geometry" />
        </mxCell>
        <mxCell id="3vEzB23FRFbl8t1fRovv-36" value="intersection" style="rounded=0;whiteSpace=wrap;html=1;fillColor=#f8cecc;strokeColor=#b85450;" vertex="1" parent="1">
          <mxGeometry x="232" y="1642" width="143" height="70" as="geometry" />
        </mxCell>
        <mxCell id="3vEzB23FRFbl8t1fRovv-37" value="不被交集包含，则需要渲染" style="text;html=1;strokeColor=none;fillColor=none;align=center;verticalAlign=middle;whiteSpace=wrap;rounded=0;" vertex="1" parent="1">
          <mxGeometry x="242" y="1822" width="203" height="30" as="geometry" />
        </mxCell>
        <mxCell id="3vEzB23FRFbl8t1fRovv-38" value="上一帧bitmap缓存，仅渲染新进入视口的页面" style="text;html=1;strokeColor=none;fillColor=none;align=center;verticalAlign=middle;whiteSpace=wrap;rounded=0;" vertex="1" parent="1">
          <mxGeometry x="185" y="40" width="415" height="30" as="geometry" />
        </mxCell>
        <mxCell id="3vEzB23FRFbl8t1fRovv-39" value="" style="rounded=0;whiteSpace=wrap;html=1;" vertex="1" parent="1">
          <mxGeometry x="565" y="1648" width="180" height="147" as="geometry" />
        </mxCell>
        <mxCell id="3vEzB23FRFbl8t1fRovv-40" value="" style="rounded=0;whiteSpace=wrap;html=1;" vertex="1" parent="1">
          <mxGeometry x="595" y="1672" width="120" height="60" as="geometry" />
        </mxCell>
        <mxCell id="3vEzB23FRFbl8t1fRovv-43" value="" style="rounded=0;whiteSpace=wrap;html=1;fillColor=none;" vertex="1" parent="1">
          <mxGeometry x="112" y="930" width="390" height="560" as="geometry" />
        </mxCell>
        <mxCell id="3vEzB23FRFbl8t1fRovv-44" value="" style="rounded=0;whiteSpace=wrap;html=1;fillColor=none;" vertex="1" parent="1">
          <mxGeometry x="205" y="1269" width="240" height="160" as="geometry" />
        </mxCell>
        <mxCell id="3vEzB23FRFbl8t1fRovv-45" value="" style="rounded=0;whiteSpace=wrap;html=1;fillColor=none;" vertex="1" parent="1">
          <mxGeometry x="133" y="990" width="240" height="160" as="geometry" />
        </mxCell>
        <mxCell id="3vEzB23FRFbl8t1fRovv-46" value="" style="endArrow=classic;html=1;rounded=0;exitX=0;exitY=0;exitDx=0;exitDy=0;entryX=0;entryY=0;entryDx=0;entryDy=0;" edge="1" parent="1" source="3vEzB23FRFbl8t1fRovv-45" target="3vEzB23FRFbl8t1fRovv-44">
          <mxGeometry width="50" height="50" relative="1" as="geometry">
            <mxPoint x="28" y="1070" as="sourcePoint" />
            <mxPoint x="58" y="1060" as="targetPoint" />
          </mxGeometry>
        </mxCell>
        <mxCell id="3vEzB23FRFbl8t1fRovv-47" value="viewbox移动" style="edgeLabel;html=1;align=center;verticalAlign=middle;resizable=0;points=[];" vertex="1" connectable="0" parent="3vEzB23FRFbl8t1fRovv-46">
          <mxGeometry x="0.125" y="2" relative="1" as="geometry">
            <mxPoint as="offset" />
          </mxGeometry>
        </mxCell>
        <mxCell id="3vEzB23FRFbl8t1fRovv-48" value="" style="rounded=0;whiteSpace=wrap;html=1;fillColor=#fff2cc;strokeColor=#d6b656;" vertex="1" parent="1">
          <mxGeometry x="210" y="1151" width="230" height="276" as="geometry" />
        </mxCell>
        <mxCell id="3vEzB23FRFbl8t1fRovv-50" value="差集矩形1：nx1, oy2, nx2, ny2" style="text;html=1;strokeColor=none;fillColor=none;align=center;verticalAlign=middle;whiteSpace=wrap;rounded=0;" vertex="1" parent="1">
          <mxGeometry x="272" y="1450" width="184" height="30" as="geometry" />
        </mxCell>
      </root>
    </mxGraphModel>
  </diagram>
</mxfile>
